<?xml version="1.0" encoding="UTF-8" standalone="no"?>
<!-- Created with Inkscape (http://www.inkscape.org/) -->

<svg
   width="200"
   height="80"
   viewBox="0 0 200 80.000002"
   version="1.1"
   id="svg1"
   inkscape:version="1.3.2 (1:1.3.2+202311252150+091e20ef0f)"
   sodipodi:docname="raw-logo1.svg"
   inkscape:export-filename="raw-logo.png"
   inkscape:export-xdpi="384"
   inkscape:export-ydpi="384"
   xmlns:inkscape="http://www.inkscape.org/namespaces/inkscape"
   xmlns:sodipodi="http://sodipodi.sourceforge.net/DTD/sodipodi-0.dtd"
   xmlns:xlink="http://www.w3.org/1999/xlink"
   xmlns="http://www.w3.org/2000/svg"
   xmlns:svg="http://www.w3.org/2000/svg"
   xmlns:rdf="http://www.w3.org/1999/02/22-rdf-syntax-ns#"
   xmlns:cc="http://creativecommons.org/ns#">
  <sodipodi:namedview
     id="namedview1"
     pagecolor="#ffffff"
     bordercolor="#ffffff"
     borderopacity="1"
     inkscape:showpageshadow="false"
     inkscape:pageopacity="0"
     inkscape:pagecheckerboard="true"
     inkscape:deskcolor="#3f3f3f"
     inkscape:document-units="px"
     labelstyle="default"
     inkscape:zoom="4.2109376"
     inkscape:cx="88.341371"
     inkscape:cy="23.74768"
     inkscape:window-width="1536"
     inkscape:window-height="840"
     inkscape:window-x="0"
     inkscape:window-y="0"
     inkscape:window-maximized="1"
     inkscape:current-layer="layer2"
     showgrid="true"
     showborder="true"
     inkscape:clip-to-page="false"
     showguides="true"
     guidecolor="#ffffff"
     guideopacity="0.6"
     inkscape:export-bgcolor="#ffffffff">
    <inkscape:grid
       id="grid1"
       units="px"
       originx="8.6274843"
       originy="17.211452"
       spacingx="1"
       spacingy="1"
       empcolor="#e5e500"
       empopacity="0.30196078"
       color="#e5e500"
       opacity="0.14901961"
       empspacing="2"
       dotted="false"
       gridanglex="30"
       gridanglez="30"
       visible="true" />
  </sodipodi:namedview>
  <defs
     id="defs1">
    <linearGradient
       id="linearGradient22"
       inkscape:collect="always">
      <stop
         style="stop-color:#000000;stop-opacity:1;"
         offset="0"
         id="stop22" />
      <stop
         style="stop-color:#ffba33;stop-opacity:1;"
         offset="0.5"
         id="stop24" />
      <stop
         style="stop-color:#ffb82e;stop-opacity:1;"
         offset="1"
         id="stop23" />
    </linearGradient>
    <color-profile
       name="Compatible-with-Adobe-RGB-1998"
       xlink:href="file:///usr/share/color/icc/colord/AdobeRGB1998.icc"
       id="color-profile2" />
    <radialGradient
       inkscape:collect="always"
       xlink:href="#linearGradient22"
       id="radialGradient23"
       cx="83.206352"
       cy="35.964466"
       fx="83.206352"
       fy="35.964466"
       r="13.42113"
       gradientTransform="matrix(0.34958004,0,0,0.59265365,54.119073,14.649994)"
       gradientUnits="userSpaceOnUse"
       spreadMethod="repeat" />
  </defs>
  <g
     inkscape:groupmode="layer"
     id="layer2"
     inkscape:label="graphic"
     style="display:inline">
    <path
       style="fill:none;fill-opacity:1;stroke:#652aa5;stroke-width:2;stroke-linecap:round;stroke-linejoin:round;stroke-dasharray:none;stroke-opacity:1;paint-order:markers fill stroke"
       d="m 134.62748,38.211452 4,0"
       id="path37"
       sodipodi:nodetypes="cc" />
    <path
       style="fill:none;fill-opacity:1;stroke:#652aa5;stroke-width:2;stroke-linecap:round;stroke-linejoin:round;stroke-dasharray:none;stroke-opacity:1;paint-order:markers fill stroke"
       id="path36"
       sodipodi:type="arc"
       sodipodi:cx="145.62749"
       sodipodi:cy="38.211452"
       sodipodi:rx="11"
       sodipodi:ry="11"
       sodipodi:start="2.3561945"
       sodipodi:end="3.9269908"
       sodipodi:open="true"
       sodipodi:arc-type="arc"
       d="m 137.84931,45.989627 a 11,11 0 0 1 0,-15.556349" />
    <path
       style="fill:#decbf2;fill-opacity:1;stroke:none;stroke-width:2;stroke-linecap:round;stroke-linejoin:round;stroke-dasharray:none;stroke-opacity:1;paint-order:markers fill stroke"
       d="m 57.159353,53.756053 0.188412,4.289759 7.986181,9.114695 0.780625,0.141489 -0.04596,-4.31153 z"
       id="path31"
       sodipodi:nodetypes="cccccc" />
    <path
       style="fill:none;fill-opacity:1;stroke:#a5652a;stroke-width:2;stroke-linecap:round;stroke-linejoin:round;stroke-dasharray:none;stroke-opacity:1;paint-order:markers fill stroke"
       d="m 81.014567,56.056405 c 0,0 4.165486,-10.09325 8.21635,-0.04222"
       id="path26" />
    <path
       style="fill:none;fill-opacity:1;stroke:#a5652a;stroke-width:2;stroke-linecap:round;stroke-linejoin:round;stroke-dasharray:none;stroke-opacity:1;paint-order:markers fill stroke"
       d="M 77.773301,49.208844 61.4315,57.38697"
       id="path29" />
    <path
       style="display:inline;fill:#decbf2;fill-opacity:1;stroke:none;stroke-width:2;stroke-linecap:round;stroke-linejoin:round;stroke-dasharray:none;stroke-opacity:1;paint-order:markers fill stroke"
       d="m 76.065317,11.782063 c -17.068913,8.707033 -17.345573,25.971551 -1.041752,34.036548 0,0 -14.767461,-0.361843 -14.767461,-17.066868 0,-16.705025 15.809213,-16.96968 15.809213,-16.96968 z"
       id="path24-9"
       sodipodi:nodetypes="cczc" />
    <path
       style="display:inline;fill:none;fill-opacity:1;stroke:#112c00;stroke-width:2;stroke-linecap:round;stroke-linejoin:round;stroke-dasharray:none;stroke-opacity:1;paint-order:markers fill stroke"
       d="m 73.589586,42.29814 c 0,0 -3.202474,4.366865 -0.163289,8.838446"
       id="path25-3" />
    <ellipse
       style="fill:url(#radialGradient23);fill-opacity:1;stroke:none;stroke-width:1.99999;stroke-linecap:round;stroke-linejoin:round;stroke-dasharray:none;stroke-opacity:1;paint-order:markers fill stroke"
       id="path21"
       ry="8.2469902"
       rx="12.421135"
       cy="35.964466"
       cx="83.206352" />
    <circle
       style="fill:#112c00;fill-opacity:1;stroke:#112c00;stroke-width:2;stroke-linecap:round;stroke-linejoin:round;stroke-dasharray:none;stroke-opacity:1;paint-order:markers fill stroke"
       id="path20"
       cx="74.195312"
       cy="35.401917"
       r="8.4997969" />
    <path
       style="fill:#decbf2;fill-opacity:1;stroke:none;stroke-width:2;stroke-linecap:round;stroke-linejoin:round;stroke-dasharray:none;stroke-opacity:1;paint-order:markers fill stroke"
       d="m 86.542577,11.570827 c 17.068913,8.707033 17.345573,25.971551 1.041752,34.036548 0,0 14.767461,-0.361843 14.767461,-17.066868 0,-16.705025 -15.809213,-16.96968 -15.809213,-16.96968 z"
       id="path24"
       sodipodi:nodetypes="cczc" />
    <path
       style="fill:none;fill-opacity:1;stroke:#112c00;stroke-width:2;stroke-linecap:round;stroke-linejoin:round;stroke-dasharray:none;stroke-opacity:1;paint-order:markers fill stroke"
       d="m 85.591107,42.279101 c 0,0 3.202474,4.366865 0.163289,8.838446"
       id="path25" />
    <path
       style="fill:#a5652a;fill-opacity:1;stroke:#a5652a;stroke-width:2;stroke-linecap:round;stroke-linejoin:round;stroke-dasharray:none;stroke-opacity:1;paint-order:markers fill stroke"
       d="m 81.014567,56.056405 c 2.970623,-1.38115 5.673721,-1.184799 8.21635,-0.04222 l -1.226312,8.978139 c -1.984596,1.365967 -4.081469,1.413752 -6.052864,-0.279673 z"
       id="path27"
       sodipodi:nodetypes="ccccc" />
    <ellipse
       style="fill:#2aa565;fill-opacity:1;stroke:none;stroke-width:2;stroke-linecap:round;stroke-linejoin:round;stroke-dasharray:none;stroke-opacity:1;paint-order:markers fill stroke"
       id="path28"
       cx="85.262108"
       cy="56.645802"
       rx="3.8273606"
       ry="1.7810677" />
    <path
       style="fill:none;fill-opacity:1;stroke:#a5652a;stroke-width:2;stroke-linecap:round;stroke-linejoin:round;stroke-dasharray:none;stroke-opacity:1;paint-order:markers fill stroke"
       d="m 57.71365,53.747361 7.581958,8.892305"
       id="path30" />
    <path
       style="fill:none;fill-opacity:1;stroke:#ffb931;stroke-width:1;stroke-linecap:round;stroke-linejoin:round;stroke-dasharray:none;stroke-opacity:1;paint-order:markers fill stroke"
       d="m 69.627484,40.211451 c 1,1.509466 4,1.662702 5,0"
       id="path33"
       sodipodi:nodetypes="cc" />
    <circle
       style="fill:#652aa5;fill-opacity:1;stroke:#ffb931;stroke-width:2;stroke-linecap:round;stroke-linejoin:round;stroke-dasharray:none;stroke-opacity:1;paint-order:markers fill stroke"
       id="path34"
       cx="145.62749"
       cy="38.211452"
       r="3" />
    <path
       style="fill:none;fill-opacity:1;stroke:#2aa565;stroke-width:2;stroke-linecap:round;stroke-linejoin:round;stroke-dasharray:none;stroke-opacity:1;paint-order:markers fill stroke"
       id="path35"
       sodipodi:type="arc"
       sodipodi:cx="145.62749"
       sodipodi:cy="38.211452"
       sodipodi:rx="7"
       sodipodi:ry="7"
       sodipodi:start="1.8325957"
       sodipodi:end="5.4977871"
       sodipodi:arc-type="arc"
       d="m 143.81575,44.972933 a 7,7 0 0 1 -5.16163,-6.15139 7,7 0 0 1 4.01504,-6.954245 7,7 0 0 1 7.90807,1.394407"
       sodipodi:open="true" />
    <text
       xml:space="preserve"
       style="font-size:8px;line-height:1.2;font-family:'Reddit Sans';-inkscape-font-specification:'Reddit Sans';text-align:start;text-decoration-color:#000000;letter-spacing:0.15px;word-spacing:0px;text-anchor:start;fill:#2aa565;fill-opacity:1;stroke-linecap:round;stroke-linejoin:round;-inkscape-stroke:none;stop-color:#000000"
       x="152.30748"
       y="40.81945"
       id="text1"><tspan
         sodipodi:role="line"
         x="152.30748"
         y="40.81945"
         style="font-style:normal;font-variant:normal;font-weight:normal;font-stretch:normal;font-size:8px;font-family:'Braah One';-inkscape-font-specification:'Braah One';text-align:start;text-anchor:start"
         id="tspan3">GREEN</tspan></text>
    <text
       xml:space="preserve"
       style="font-size:5.01898px;line-height:1.2;font-family:'Reddit Sans';-inkscape-font-specification:'Reddit Sans';text-align:start;text-decoration-color:#000000;letter-spacing:0.188212px;word-spacing:0px;text-anchor:start;display:inline;fill:#2aa565;fill-opacity:1;stroke-width:1;stroke-linecap:round;stroke-linejoin:round;-inkscape-stroke:none;stop-color:#000000"
       x="148.30988"
       y="46.211452"
       id="text1-9"><tspan
         sodipodi:role="line"
         x="148.30988"
         y="46.211452"
         style="font-style:normal;font-variant:normal;font-weight:normal;font-stretch:normal;font-size:5.01898px;font-family:'Braah One';-inkscape-font-specification:'Braah One';text-align:start;text-anchor:start;stroke-width:1"
         id="tspan3-9">PÅ ÅLAND</tspan></text>
  </g>
  <g
     inkscape:label="text"
     inkscape:groupmode="layer"
     id="layer1"
     transform="translate(8.6274848,17.211452)"
     style="display:inline"
     sodipodi:insensitive="true">
    <path
       style="fill:none;stroke:#112c00;stroke-width:1;stroke-linecap:round;stroke-linejoin:round;stroke-dasharray:none;stroke-opacity:1;paint-order:markers fill stroke"
       d="m -19,3.9999999 h -3 L -21.406008,1.2789538e-7 h 3 L -18.703004,2 h -3"
       id="path1" />
    <path
       style="fill:none;stroke:#2aa565;stroke-width:2;stroke-linecap:round;stroke-linejoin:round;stroke-dasharray:none;stroke-opacity:1;paint-order:markers fill stroke"
       d="m 14,12 c 0,0 -4.5857864,1.414214 -6,0 -1.8856181,-1.885618 -1.8856181,-6.1143821 0,-8.0000002 1.4142136,-1.4142136 4.585786,-1.4142136 6,0 0.942809,0.942809 0.942809,3.0571909 0,3.9999999 -1.414214,1.4142136 -6.0000001,1e-7 -6.0000001,1e-7"
       id="path4"
       sodipodi:nodetypes="cssssc" />
    <path
       style="fill:none;stroke:#2aa565;stroke-width:2;stroke-linecap:round;stroke-linejoin:round;stroke-dasharray:none;stroke-opacity:1;paint-order:markers fill stroke"
       d="m 23,11.999999 c 0,0 -4.585786,1.414214 -6,0 -1.885618,-1.885618 -1.885618,-6.1143811 0,-7.9999989 1.414214,-1.4142136 6,0 6,0"
       id="path5"
       sodipodi:nodetypes="cssc" />
    <path
       style="fill:none;stroke:#2aa565;stroke-width:2;stroke-linecap:round;stroke-linejoin:round;stroke-dasharray:none;stroke-opacity:1;paint-order:markers fill stroke"
       d="m 26,3.9999998 c 1.414214,-1.4142136 4.585786,-1.4142136 6,0 1.885618,1.8856179 1.885618,6.1143812 0,7.9999992 -1.414213,1.414214 -4.585786,1.414214 -6,10e-7 -1.885618,-1.885618 -1.885618,-6.1143821 0,-8.0000002 z"
       id="path6"
       sodipodi:nodetypes="sssss" />
    <path
       style="fill:none;stroke:#2aa565;stroke-width:2;stroke-linecap:round;stroke-linejoin:round;stroke-dasharray:none;stroke-opacity:1;paint-order:markers fill stroke"
       d="m 44,3.9999998 c 0,0 -4.585786,-1.4142136 -6,0 C 36.114382,5.8856179 36.114382,10.114382 38,12 c 1.414214,1.414214 6,0 6,0 V 8.0000001 l -2,-3e-7"
       id="path7"
       sodipodi:nodetypes="cssccc" />
    <path
       style="fill:none;stroke:#2aa565;stroke-width:2;stroke-linecap:round;stroke-linejoin:round;stroke-dasharray:none;stroke-opacity:1;paint-order:markers fill stroke"
       d="M 47,12 V 3.9999995 c 0,0 4.585786,-1.4142136 6,0 0.942809,0.942809 0.942809,3.0571908 0,3.9999999 -1.178511,1.1785113 -5,4e-7 -5,4e-7 L 50.265966,8.6634671 53,12"
       id="path8"
       sodipodi:nodetypes="ccssccc" />
    <path
       style="fill:none;stroke:#2aa565;stroke-width:2;stroke-linecap:round;stroke-linejoin:round;stroke-dasharray:none;stroke-opacity:1;paint-order:markers fill stroke"
       d="m 62,12.000001 c 0,0 -4.585787,1.414213 -6,-10e-7 -1.885618,-1.885618 -1.885618,-6.1143815 0,-7.9999995 1.414214,-1.4142136 4.585786,-1.4142136 6,0 0.942809,0.942809 0.942809,3.0571909 0,3.9999999 -1.414214,1.4142135 -6,-6e-7 -6,-6e-7"
       id="path9"
       sodipodi:nodetypes="cssssc" />
    <path
       style="fill:none;stroke:#2aa565;stroke-width:2;stroke-linecap:round;stroke-linejoin:round;stroke-dasharray:none;stroke-opacity:1;paint-order:markers fill stroke"
       d="m 71,12 c 0,0 -4.585787,1.414213 -6,-10e-7 -1.885618,-1.885618 -1.885618,-6.1143812 0,-7.9999991 1.414214,-1.4142136 4.585786,-1.4142136 6,0 0.942809,0.942809 0.942809,3.0571909 0,3.9999999 -1.414214,1.4142136 -6,0 -6,0"
       id="path9-5"
       sodipodi:nodetypes="cssssc" />
    <path
       style="fill:none;stroke:#2aa565;stroke-width:2;stroke-linecap:round;stroke-linejoin:round;stroke-dasharray:none;stroke-opacity:1;paint-order:markers fill stroke"
       d="M 74,12 V 4.0000005 l 6,8.0000005 V 4.0000005"
       id="path10" />
    <path
       style="fill:none;stroke:#2aa565;stroke-width:2;stroke-linecap:round;stroke-linejoin:round;stroke-dasharray:none;stroke-opacity:1;paint-order:markers fill stroke"
       d="m 46,30.999999 v -8 c 0,0 4.585786,-1.414214 6,0 0.942809,0.942809 0.942809,3.057191 0,4 -1.414214,1.414214 -6,0 -6,0"
       id="path11"
       sodipodi:nodetypes="ccssc" />
    <path
       style="fill:none;stroke:#2aa565;stroke-width:2;stroke-linecap:round;stroke-linejoin:round;stroke-dasharray:none;stroke-opacity:1;paint-order:markers fill stroke"
       d="m 55,30.999999 c 0,0 0.151999,-8 3,-8 2.848001,0 3,8 3,8"
       id="path12"
       sodipodi:nodetypes="csc" />
    <path
       style="fill:none;stroke:#2aa565;stroke-width:2;stroke-linecap:round;stroke-linejoin:round;stroke-dasharray:none;stroke-opacity:1;paint-order:markers fill stroke"
       d="m 56,28.999999 h 4"
       id="path13" />
    <path
       style="fill:#652aa5;fill-opacity:1;stroke:#ffb931;stroke-width:2;stroke-linecap:round;stroke-linejoin:round;stroke-dasharray:none;stroke-opacity:1;paint-order:markers fill stroke"
       d="m 56,19.999999 c 0.942809,0.942809 3.057191,0.942809 4,0 0.942809,-0.942809 0.942809,-3.057191 0,-4 -0.942809,-0.942809 -3.057191,-0.942809 -4,0 -0.942809,0.942809 -0.942809,3.057191 0,4 z"
       id="path14"
       sodipodi:nodetypes="sssss" />
    <path
       style="fill:none;stroke:#2aa565;stroke-width:2;stroke-linecap:round;stroke-linejoin:round;stroke-dasharray:none;stroke-opacity:1;paint-order:markers fill stroke"
       d="m 66,31 c 0,0 0.151999,-8 3,-8 2.848001,0 3,8 3,8"
       id="path12-2"
       sodipodi:nodetypes="csc" />
    <path
       style="fill:none;stroke:#2aa565;stroke-width:2;stroke-linecap:round;stroke-linejoin:round;stroke-dasharray:none;stroke-opacity:1;paint-order:markers fill stroke"
       d="m 67,29 h 4"
       id="path13-9" />
    <path
       style="fill:#652aa5;fill-opacity:1;stroke:#ffb931;stroke-width:2;stroke-linecap:round;stroke-linejoin:round;stroke-dasharray:none;stroke-opacity:1;paint-order:markers fill stroke"
       d="m 67,20 c 0.942809,0.942809 3.057191,0.942809 4,0 0.942809,-0.942809 0.942809,-3.057191 0,-4 -0.942809,-0.942809 -3.057191,-0.942809 -4,0 -0.942809,0.942809 -0.942809,3.057191 0,4 z"
       id="path14-1"
       sodipodi:nodetypes="sssss" />
    <path
       style="fill:none;stroke:#2aa565;stroke-width:2;stroke-linecap:round;stroke-linejoin:round;stroke-dasharray:none;stroke-opacity:1;paint-order:markers fill stroke"
       d="m 79,31 c 0,0 -3.057191,0.942809 -4,0 -1.885618,-1.885618 0,-8 0,-8"
       id="path15"
       sodipodi:nodetypes="csc" />
    <path
       style="fill:none;stroke:#2aa565;stroke-width:2;stroke-linecap:round;stroke-linejoin:round;stroke-dasharray:none;stroke-opacity:1;paint-order:markers fill stroke"
       d="m 91,31 v -8 l 6,8 v -8"
       id="path18" />
    <path
       style="fill:none;stroke:#2aa565;stroke-width:2;stroke-linecap:round;stroke-linejoin:round;stroke-dasharray:none;stroke-opacity:1;paint-order:markers fill stroke"
       d="m 101,31 v -8 c 0,0 2.76816,-0.510245 4,0 0.87104,0.360797 1.6392,1.128958 2,2 0.51024,1.231839 0.51024,2.768161 0,4 -0.3608,0.871042 -1.12896,1.639203 -2,2 -1.23184,0.510245 -4,0 -4,0 z"
       id="path19"
       sodipodi:nodetypes="ccssssc" />
    <path
       style="fill:none;stroke:#2aa565;stroke-width:2;stroke-linecap:round;stroke-linejoin:round;stroke-dasharray:none;stroke-opacity:1;paint-order:markers fill stroke"
       d="m 82,31 c 0,0 0.152,-8 3,-8 2.848,0 3,8 3,8"
       id="path12-2-2"
       sodipodi:nodetypes="csc" />
    <path
       style="fill:none;stroke:#2aa565;stroke-width:2;stroke-linecap:round;stroke-linejoin:round;stroke-dasharray:none;stroke-opacity:1;paint-order:markers fill stroke"
       d="m 83,29 h 4"
       id="path13-9-6" />
  </g>
  <metadata
     id="metadata1">
    <rdf:RDF>
      <cc:Work
         rdf:about="">
        <cc:license
           rdf:resource="https://healingdrawing.github.io/info/license/fpl.html" />
      </cc:Work>
    </rdf:RDF>
  </metadata>
</svg>
